<mxfile host="app.diagrams.net" modified="2020-08-06T17:42:19.739Z" agent="5.0 (Windows)" etag="E5W6NPBfaVkfgFDRtLid" version="13.6.0" type="github">
  <diagram id="yG1Jh6SECEbRcKLDVX-q" name="Page-1">
    <mxGraphModel dx="1038" dy="585" grid="1" gridSize="10" guides="1" tooltips="1" connect="1" arrows="1" fold="1" page="1" pageScale="1" pageWidth="850" pageHeight="1100" math="0" shadow="0">
      <root>
        <mxCell id="0" />
        <mxCell id="1" parent="0" />
        <mxCell id="UvIz6pSkPgHuYmIcLqJq-1" value="" style="rounded=1;whiteSpace=wrap;html=1;rotation=-90;" vertex="1" parent="1">
          <mxGeometry x="156" y="100" width="538" height="410" as="geometry" />
        </mxCell>
        <mxCell id="UvIz6pSkPgHuYmIcLqJq-7" value="" style="edgeStyle=orthogonalEdgeStyle;rounded=0;orthogonalLoop=1;jettySize=auto;html=1;fontFamily=Verdana;" edge="1" parent="1" source="UvIz6pSkPgHuYmIcLqJq-5" target="UvIz6pSkPgHuYmIcLqJq-6">
          <mxGeometry relative="1" as="geometry" />
        </mxCell>
        <mxCell id="UvIz6pSkPgHuYmIcLqJq-8" style="edgeStyle=orthogonalEdgeStyle;rounded=0;orthogonalLoop=1;jettySize=auto;html=1;" edge="1" parent="1" source="UvIz6pSkPgHuYmIcLqJq-5">
          <mxGeometry relative="1" as="geometry">
            <mxPoint x="150" y="260" as="targetPoint" />
          </mxGeometry>
        </mxCell>
        <mxCell id="UvIz6pSkPgHuYmIcLqJq-41" style="edgeStyle=orthogonalEdgeStyle;rounded=0;orthogonalLoop=1;jettySize=auto;html=1;entryX=0.918;entryY=0.098;entryDx=0;entryDy=0;entryPerimeter=0;fontFamily=Verdana;" edge="1" parent="1" source="UvIz6pSkPgHuYmIcLqJq-5" target="UvIz6pSkPgHuYmIcLqJq-1">
          <mxGeometry relative="1" as="geometry" />
        </mxCell>
        <mxCell id="UvIz6pSkPgHuYmIcLqJq-42" style="edgeStyle=orthogonalEdgeStyle;rounded=0;orthogonalLoop=1;jettySize=auto;html=1;entryX=0;entryY=1;entryDx=0;entryDy=0;fontFamily=Verdana;" edge="1" parent="1" source="UvIz6pSkPgHuYmIcLqJq-5" target="UvIz6pSkPgHuYmIcLqJq-24">
          <mxGeometry relative="1" as="geometry" />
        </mxCell>
        <mxCell id="UvIz6pSkPgHuYmIcLqJq-43" style="edgeStyle=orthogonalEdgeStyle;rounded=0;orthogonalLoop=1;jettySize=auto;html=1;entryX=0;entryY=0.5;entryDx=0;entryDy=0;fontFamily=Verdana;" edge="1" parent="1" source="UvIz6pSkPgHuYmIcLqJq-5" target="UvIz6pSkPgHuYmIcLqJq-26">
          <mxGeometry relative="1" as="geometry" />
        </mxCell>
        <mxCell id="UvIz6pSkPgHuYmIcLqJq-44" style="edgeStyle=orthogonalEdgeStyle;rounded=0;orthogonalLoop=1;jettySize=auto;html=1;entryX=0;entryY=0.5;entryDx=0;entryDy=0;fontFamily=Verdana;" edge="1" parent="1" source="UvIz6pSkPgHuYmIcLqJq-5" target="UvIz6pSkPgHuYmIcLqJq-27">
          <mxGeometry relative="1" as="geometry" />
        </mxCell>
        <mxCell id="UvIz6pSkPgHuYmIcLqJq-45" style="edgeStyle=orthogonalEdgeStyle;rounded=0;orthogonalLoop=1;jettySize=auto;html=1;entryX=0;entryY=0.5;entryDx=0;entryDy=0;fontFamily=Verdana;" edge="1" parent="1" source="UvIz6pSkPgHuYmIcLqJq-5" target="UvIz6pSkPgHuYmIcLqJq-28">
          <mxGeometry relative="1" as="geometry" />
        </mxCell>
        <mxCell id="UvIz6pSkPgHuYmIcLqJq-46" style="edgeStyle=orthogonalEdgeStyle;rounded=0;orthogonalLoop=1;jettySize=auto;html=1;entryX=0;entryY=0.5;entryDx=0;entryDy=0;fontFamily=Verdana;" edge="1" parent="1" source="UvIz6pSkPgHuYmIcLqJq-5" target="UvIz6pSkPgHuYmIcLqJq-29">
          <mxGeometry relative="1" as="geometry" />
        </mxCell>
        <mxCell id="UvIz6pSkPgHuYmIcLqJq-47" style="edgeStyle=orthogonalEdgeStyle;rounded=0;orthogonalLoop=1;jettySize=auto;html=1;entryX=0;entryY=0.5;entryDx=0;entryDy=0;fontFamily=Verdana;" edge="1" parent="1" source="UvIz6pSkPgHuYmIcLqJq-5" target="UvIz6pSkPgHuYmIcLqJq-30">
          <mxGeometry relative="1" as="geometry" />
        </mxCell>
        <mxCell id="UvIz6pSkPgHuYmIcLqJq-48" style="edgeStyle=orthogonalEdgeStyle;rounded=0;orthogonalLoop=1;jettySize=auto;html=1;entryX=0;entryY=0.5;entryDx=0;entryDy=0;fontFamily=Verdana;" edge="1" parent="1" source="UvIz6pSkPgHuYmIcLqJq-5" target="UvIz6pSkPgHuYmIcLqJq-31">
          <mxGeometry relative="1" as="geometry" />
        </mxCell>
        <mxCell id="UvIz6pSkPgHuYmIcLqJq-5" value="&lt;div&gt;Customer&lt;/div&gt;" style="shape=umlActor;verticalLabelPosition=bottom;verticalAlign=top;html=1;outlineConnect=0;fontFamily=Verdana;" vertex="1" parent="1">
          <mxGeometry x="100" y="120" width="20" height="50" as="geometry" />
        </mxCell>
        <mxCell id="UvIz6pSkPgHuYmIcLqJq-39" style="edgeStyle=orthogonalEdgeStyle;rounded=0;orthogonalLoop=1;jettySize=auto;html=1;entryX=0;entryY=0.5;entryDx=0;entryDy=0;fontFamily=Verdana;" edge="1" parent="1" source="UvIz6pSkPgHuYmIcLqJq-6" target="UvIz6pSkPgHuYmIcLqJq-24">
          <mxGeometry relative="1" as="geometry" />
        </mxCell>
        <mxCell id="UvIz6pSkPgHuYmIcLqJq-6" value="&lt;div&gt;Old&lt;/div&gt;&lt;div&gt;Customer&lt;br&gt;&lt;/div&gt;" style="shape=umlActor;verticalLabelPosition=bottom;verticalAlign=top;html=1;outlineConnect=0;fontFamily=Verdana;" vertex="1" parent="1">
          <mxGeometry x="60" y="260" width="30" height="60" as="geometry" />
        </mxCell>
        <mxCell id="UvIz6pSkPgHuYmIcLqJq-40" style="edgeStyle=orthogonalEdgeStyle;rounded=0;orthogonalLoop=1;jettySize=auto;html=1;entryX=0;entryY=0.5;entryDx=0;entryDy=0;fontFamily=Verdana;" edge="1" parent="1" source="UvIz6pSkPgHuYmIcLqJq-9" target="UvIz6pSkPgHuYmIcLqJq-25">
          <mxGeometry relative="1" as="geometry" />
        </mxCell>
        <mxCell id="UvIz6pSkPgHuYmIcLqJq-9" value="&lt;div&gt;New&lt;/div&gt;&lt;div&gt;Customer&lt;/div&gt;" style="shape=umlActor;verticalLabelPosition=bottom;verticalAlign=top;html=1;outlineConnect=0;" vertex="1" parent="1">
          <mxGeometry x="130" y="260" width="30" height="60" as="geometry" />
        </mxCell>
        <mxCell id="UvIz6pSkPgHuYmIcLqJq-14" value="Bus Booking" style="text;html=1;strokeColor=none;fillColor=none;align=center;verticalAlign=middle;whiteSpace=wrap;rounded=0;fontFamily=Verdana;" vertex="1" parent="1">
          <mxGeometry x="350" width="150" height="30" as="geometry" />
        </mxCell>
        <mxCell id="UvIz6pSkPgHuYmIcLqJq-34" style="edgeStyle=orthogonalEdgeStyle;rounded=0;orthogonalLoop=1;jettySize=auto;html=1;entryX=0;entryY=1;entryDx=0;entryDy=0;fontFamily=Verdana;" edge="1" parent="1" source="UvIz6pSkPgHuYmIcLqJq-24" target="UvIz6pSkPgHuYmIcLqJq-32">
          <mxGeometry relative="1" as="geometry" />
        </mxCell>
        <mxCell id="UvIz6pSkPgHuYmIcLqJq-50" style="edgeStyle=orthogonalEdgeStyle;rounded=0;orthogonalLoop=1;jettySize=auto;html=1;entryX=0.057;entryY=0.85;entryDx=0;entryDy=0;entryPerimeter=0;fontFamily=Verdana;" edge="1" parent="1" source="UvIz6pSkPgHuYmIcLqJq-24" target="UvIz6pSkPgHuYmIcLqJq-49">
          <mxGeometry relative="1" as="geometry" />
        </mxCell>
        <mxCell id="UvIz6pSkPgHuYmIcLqJq-24" value="Log in" style="ellipse;whiteSpace=wrap;html=1;fontFamily=Verdana;" vertex="1" parent="1">
          <mxGeometry x="250" y="100" width="70" height="40" as="geometry" />
        </mxCell>
        <mxCell id="UvIz6pSkPgHuYmIcLqJq-36" style="edgeStyle=orthogonalEdgeStyle;rounded=0;orthogonalLoop=1;jettySize=auto;html=1;entryX=0;entryY=0.75;entryDx=0;entryDy=0;entryPerimeter=0;fontFamily=Verdana;" edge="1" parent="1" source="UvIz6pSkPgHuYmIcLqJq-25" target="UvIz6pSkPgHuYmIcLqJq-32">
          <mxGeometry relative="1" as="geometry" />
        </mxCell>
        <mxCell id="UvIz6pSkPgHuYmIcLqJq-53" style="edgeStyle=orthogonalEdgeStyle;rounded=0;orthogonalLoop=1;jettySize=auto;html=1;fontFamily=Verdana;" edge="1" parent="1" source="UvIz6pSkPgHuYmIcLqJq-25" target="UvIz6pSkPgHuYmIcLqJq-52">
          <mxGeometry relative="1" as="geometry" />
        </mxCell>
        <mxCell id="UvIz6pSkPgHuYmIcLqJq-25" value="Register" style="ellipse;whiteSpace=wrap;html=1;fontFamily=Verdana;" vertex="1" parent="1">
          <mxGeometry x="250" y="50" width="60" height="40" as="geometry" />
        </mxCell>
        <mxCell id="UvIz6pSkPgHuYmIcLqJq-26" value="Dashboard" style="ellipse;whiteSpace=wrap;html=1;fontFamily=Verdana;" vertex="1" parent="1">
          <mxGeometry x="255" y="170" width="70" height="40" as="geometry" />
        </mxCell>
        <mxCell id="UvIz6pSkPgHuYmIcLqJq-65" style="edgeStyle=orthogonalEdgeStyle;rounded=0;orthogonalLoop=1;jettySize=auto;html=1;entryX=0;entryY=0.5;entryDx=0;entryDy=0;fontFamily=Verdana;" edge="1" parent="1" source="UvIz6pSkPgHuYmIcLqJq-27" target="UvIz6pSkPgHuYmIcLqJq-55">
          <mxGeometry relative="1" as="geometry" />
        </mxCell>
        <mxCell id="UvIz6pSkPgHuYmIcLqJq-66" style="edgeStyle=orthogonalEdgeStyle;rounded=0;orthogonalLoop=1;jettySize=auto;html=1;fontFamily=Verdana;" edge="1" parent="1" source="UvIz6pSkPgHuYmIcLqJq-27" target="UvIz6pSkPgHuYmIcLqJq-59">
          <mxGeometry relative="1" as="geometry" />
        </mxCell>
        <mxCell id="UvIz6pSkPgHuYmIcLqJq-67" style="edgeStyle=orthogonalEdgeStyle;rounded=0;orthogonalLoop=1;jettySize=auto;html=1;entryX=0;entryY=0.5;entryDx=0;entryDy=0;fontFamily=Verdana;" edge="1" parent="1" source="UvIz6pSkPgHuYmIcLqJq-27" target="UvIz6pSkPgHuYmIcLqJq-60">
          <mxGeometry relative="1" as="geometry" />
        </mxCell>
        <mxCell id="UvIz6pSkPgHuYmIcLqJq-68" style="edgeStyle=orthogonalEdgeStyle;rounded=0;orthogonalLoop=1;jettySize=auto;html=1;entryX=0;entryY=0.5;entryDx=0;entryDy=0;fontFamily=Verdana;" edge="1" parent="1" source="UvIz6pSkPgHuYmIcLqJq-27" target="UvIz6pSkPgHuYmIcLqJq-61">
          <mxGeometry relative="1" as="geometry" />
        </mxCell>
        <mxCell id="UvIz6pSkPgHuYmIcLqJq-69" style="edgeStyle=orthogonalEdgeStyle;rounded=0;orthogonalLoop=1;jettySize=auto;html=1;entryX=0;entryY=0.5;entryDx=0;entryDy=0;fontFamily=Verdana;" edge="1" parent="1" source="UvIz6pSkPgHuYmIcLqJq-27" target="UvIz6pSkPgHuYmIcLqJq-62">
          <mxGeometry relative="1" as="geometry" />
        </mxCell>
        <mxCell id="UvIz6pSkPgHuYmIcLqJq-77" style="edgeStyle=orthogonalEdgeStyle;rounded=0;orthogonalLoop=1;jettySize=auto;html=1;entryX=0.013;entryY=0.2;entryDx=0;entryDy=0;entryPerimeter=0;fontFamily=Verdana;" edge="1" parent="1" source="UvIz6pSkPgHuYmIcLqJq-27" target="UvIz6pSkPgHuYmIcLqJq-62">
          <mxGeometry relative="1" as="geometry" />
        </mxCell>
        <mxCell id="UvIz6pSkPgHuYmIcLqJq-27" value="Customers" style="ellipse;whiteSpace=wrap;html=1;fontFamily=Verdana;" vertex="1" parent="1">
          <mxGeometry x="255" y="230" width="85" height="50" as="geometry" />
        </mxCell>
        <mxCell id="UvIz6pSkPgHuYmIcLqJq-70" style="edgeStyle=orthogonalEdgeStyle;rounded=0;orthogonalLoop=1;jettySize=auto;html=1;entryX=0.013;entryY=0.8;entryDx=0;entryDy=0;entryPerimeter=0;fontFamily=Verdana;" edge="1" parent="1" source="UvIz6pSkPgHuYmIcLqJq-28" target="UvIz6pSkPgHuYmIcLqJq-55">
          <mxGeometry relative="1" as="geometry" />
        </mxCell>
        <mxCell id="UvIz6pSkPgHuYmIcLqJq-71" style="edgeStyle=orthogonalEdgeStyle;rounded=0;orthogonalLoop=1;jettySize=auto;html=1;entryX=-0.012;entryY=0.7;entryDx=0;entryDy=0;entryPerimeter=0;fontFamily=Verdana;" edge="1" parent="1" source="UvIz6pSkPgHuYmIcLqJq-28" target="UvIz6pSkPgHuYmIcLqJq-59">
          <mxGeometry relative="1" as="geometry" />
        </mxCell>
        <mxCell id="UvIz6pSkPgHuYmIcLqJq-72" style="edgeStyle=orthogonalEdgeStyle;rounded=0;orthogonalLoop=1;jettySize=auto;html=1;entryX=0.067;entryY=0.74;entryDx=0;entryDy=0;entryPerimeter=0;fontFamily=Verdana;" edge="1" parent="1" source="UvIz6pSkPgHuYmIcLqJq-28" target="UvIz6pSkPgHuYmIcLqJq-60">
          <mxGeometry relative="1" as="geometry" />
        </mxCell>
        <mxCell id="UvIz6pSkPgHuYmIcLqJq-73" style="edgeStyle=orthogonalEdgeStyle;rounded=0;orthogonalLoop=1;jettySize=auto;html=1;entryX=0;entryY=0.78;entryDx=0;entryDy=0;entryPerimeter=0;fontFamily=Verdana;" edge="1" parent="1" source="UvIz6pSkPgHuYmIcLqJq-28" target="UvIz6pSkPgHuYmIcLqJq-61">
          <mxGeometry relative="1" as="geometry" />
        </mxCell>
        <mxCell id="UvIz6pSkPgHuYmIcLqJq-28" value="Booking" style="ellipse;whiteSpace=wrap;html=1;fontFamily=Verdana;" vertex="1" parent="1">
          <mxGeometry x="255" y="300" width="70" height="40" as="geometry" />
        </mxCell>
        <mxCell id="UvIz6pSkPgHuYmIcLqJq-79" style="edgeStyle=orthogonalEdgeStyle;rounded=0;orthogonalLoop=1;jettySize=auto;html=1;entryX=0.025;entryY=0.825;entryDx=0;entryDy=0;entryPerimeter=0;fontFamily=Verdana;" edge="1" parent="1" source="UvIz6pSkPgHuYmIcLqJq-29" target="UvIz6pSkPgHuYmIcLqJq-55">
          <mxGeometry relative="1" as="geometry" />
        </mxCell>
        <mxCell id="UvIz6pSkPgHuYmIcLqJq-80" style="edgeStyle=orthogonalEdgeStyle;rounded=0;orthogonalLoop=1;jettySize=auto;html=1;fontFamily=Verdana;" edge="1" parent="1" source="UvIz6pSkPgHuYmIcLqJq-29">
          <mxGeometry relative="1" as="geometry">
            <mxPoint x="520" y="260" as="targetPoint" />
          </mxGeometry>
        </mxCell>
        <mxCell id="UvIz6pSkPgHuYmIcLqJq-82" style="edgeStyle=orthogonalEdgeStyle;rounded=0;orthogonalLoop=1;jettySize=auto;html=1;entryX=0.267;entryY=0.94;entryDx=0;entryDy=0;entryPerimeter=0;fontFamily=Verdana;" edge="1" parent="1" source="UvIz6pSkPgHuYmIcLqJq-29" target="UvIz6pSkPgHuYmIcLqJq-60">
          <mxGeometry relative="1" as="geometry" />
        </mxCell>
        <mxCell id="UvIz6pSkPgHuYmIcLqJq-83" style="edgeStyle=orthogonalEdgeStyle;rounded=0;orthogonalLoop=1;jettySize=auto;html=1;entryX=0.188;entryY=1;entryDx=0;entryDy=0;entryPerimeter=0;fontFamily=Verdana;" edge="1" parent="1" source="UvIz6pSkPgHuYmIcLqJq-29" target="UvIz6pSkPgHuYmIcLqJq-61">
          <mxGeometry relative="1" as="geometry" />
        </mxCell>
        <mxCell id="UvIz6pSkPgHuYmIcLqJq-84" style="edgeStyle=orthogonalEdgeStyle;rounded=0;orthogonalLoop=1;jettySize=auto;html=1;entryX=0;entryY=1;entryDx=0;entryDy=0;fontFamily=Verdana;" edge="1" parent="1" source="UvIz6pSkPgHuYmIcLqJq-29" target="UvIz6pSkPgHuYmIcLqJq-62">
          <mxGeometry relative="1" as="geometry" />
        </mxCell>
        <mxCell id="UvIz6pSkPgHuYmIcLqJq-29" value="Seats" style="ellipse;whiteSpace=wrap;html=1;fontFamily=Verdana;" vertex="1" parent="1">
          <mxGeometry x="252.5" y="360" width="65" height="40" as="geometry" />
        </mxCell>
        <mxCell id="UvIz6pSkPgHuYmIcLqJq-85" style="edgeStyle=orthogonalEdgeStyle;rounded=0;orthogonalLoop=1;jettySize=auto;html=1;entryX=0;entryY=1;entryDx=0;entryDy=0;fontFamily=Verdana;" edge="1" parent="1" source="UvIz6pSkPgHuYmIcLqJq-30" target="UvIz6pSkPgHuYmIcLqJq-55">
          <mxGeometry relative="1" as="geometry" />
        </mxCell>
        <mxCell id="UvIz6pSkPgHuYmIcLqJq-86" style="edgeStyle=orthogonalEdgeStyle;rounded=0;orthogonalLoop=1;jettySize=auto;html=1;entryX=0.5;entryY=1;entryDx=0;entryDy=0;fontFamily=Verdana;" edge="1" parent="1" source="UvIz6pSkPgHuYmIcLqJq-30" target="UvIz6pSkPgHuYmIcLqJq-59">
          <mxGeometry relative="1" as="geometry" />
        </mxCell>
        <mxCell id="UvIz6pSkPgHuYmIcLqJq-87" style="edgeStyle=orthogonalEdgeStyle;rounded=0;orthogonalLoop=1;jettySize=auto;html=1;entryX=0.288;entryY=1.04;entryDx=0;entryDy=0;entryPerimeter=0;fontFamily=Verdana;" edge="1" parent="1" source="UvIz6pSkPgHuYmIcLqJq-30" target="UvIz6pSkPgHuYmIcLqJq-61">
          <mxGeometry relative="1" as="geometry" />
        </mxCell>
        <mxCell id="UvIz6pSkPgHuYmIcLqJq-88" style="edgeStyle=orthogonalEdgeStyle;rounded=0;orthogonalLoop=1;jettySize=auto;html=1;entryX=0;entryY=1;entryDx=0;entryDy=0;fontFamily=Verdana;" edge="1" parent="1" source="UvIz6pSkPgHuYmIcLqJq-30" target="UvIz6pSkPgHuYmIcLqJq-62">
          <mxGeometry relative="1" as="geometry" />
        </mxCell>
        <mxCell id="UvIz6pSkPgHuYmIcLqJq-30" value="Availability" style="ellipse;whiteSpace=wrap;html=1;fontFamily=Verdana;" vertex="1" parent="1">
          <mxGeometry x="255" y="420" width="75" height="40" as="geometry" />
        </mxCell>
        <mxCell id="UvIz6pSkPgHuYmIcLqJq-93" style="edgeStyle=orthogonalEdgeStyle;rounded=0;orthogonalLoop=1;jettySize=auto;html=1;fontFamily=Verdana;" edge="1" parent="1" source="UvIz6pSkPgHuYmIcLqJq-31">
          <mxGeometry relative="1" as="geometry">
            <mxPoint x="510" y="260" as="targetPoint" />
          </mxGeometry>
        </mxCell>
        <mxCell id="UvIz6pSkPgHuYmIcLqJq-94" style="edgeStyle=orthogonalEdgeStyle;rounded=0;orthogonalLoop=1;jettySize=auto;html=1;fontFamily=Verdana;" edge="1" parent="1" source="UvIz6pSkPgHuYmIcLqJq-31">
          <mxGeometry relative="1" as="geometry">
            <mxPoint x="510" y="320" as="targetPoint" />
          </mxGeometry>
        </mxCell>
        <mxCell id="UvIz6pSkPgHuYmIcLqJq-95" style="edgeStyle=orthogonalEdgeStyle;rounded=0;orthogonalLoop=1;jettySize=auto;html=1;entryX=0;entryY=1;entryDx=0;entryDy=0;fontFamily=Verdana;" edge="1" parent="1" source="UvIz6pSkPgHuYmIcLqJq-31" target="UvIz6pSkPgHuYmIcLqJq-61">
          <mxGeometry relative="1" as="geometry" />
        </mxCell>
        <mxCell id="UvIz6pSkPgHuYmIcLqJq-96" style="edgeStyle=orthogonalEdgeStyle;rounded=0;orthogonalLoop=1;jettySize=auto;html=1;entryX=0.5;entryY=1;entryDx=0;entryDy=0;fontFamily=Verdana;" edge="1" parent="1" source="UvIz6pSkPgHuYmIcLqJq-31" target="UvIz6pSkPgHuYmIcLqJq-62">
          <mxGeometry relative="1" as="geometry" />
        </mxCell>
        <mxCell id="UvIz6pSkPgHuYmIcLqJq-31" value="Routes" style="ellipse;whiteSpace=wrap;html=1;fontFamily=Verdana;" vertex="1" parent="1">
          <mxGeometry x="260" y="470" width="80" height="50" as="geometry" />
        </mxCell>
        <mxCell id="UvIz6pSkPgHuYmIcLqJq-32" value="&lt;div&gt;Verify&lt;/div&gt;&lt;div&gt;Password&lt;br&gt;&lt;/div&gt;" style="ellipse;whiteSpace=wrap;html=1;fontFamily=Verdana;" vertex="1" parent="1">
          <mxGeometry x="510" y="50" width="70" height="40" as="geometry" />
        </mxCell>
        <mxCell id="UvIz6pSkPgHuYmIcLqJq-35" value="&amp;lt;&amp;lt;Include&amp;gt;&amp;gt;" style="text;html=1;strokeColor=none;fillColor=none;align=center;verticalAlign=middle;whiteSpace=wrap;rounded=0;fontFamily=Verdana;" vertex="1" parent="1">
          <mxGeometry x="405" y="100" width="40" height="20" as="geometry" />
        </mxCell>
        <mxCell id="UvIz6pSkPgHuYmIcLqJq-37" value="&amp;lt;&amp;lt;include&amp;gt;&amp;gt;" style="text;html=1;strokeColor=none;fillColor=none;align=center;verticalAlign=middle;whiteSpace=wrap;rounded=0;fontFamily=Verdana;" vertex="1" parent="1">
          <mxGeometry x="430" y="60" width="40" height="20" as="geometry" />
        </mxCell>
        <mxCell id="UvIz6pSkPgHuYmIcLqJq-49" value="Wrong Password" style="ellipse;whiteSpace=wrap;html=1;fontFamily=Verdana;" vertex="1" parent="1">
          <mxGeometry x="520" y="110" width="70" height="40" as="geometry" />
        </mxCell>
        <mxCell id="UvIz6pSkPgHuYmIcLqJq-51" value="&amp;lt;&amp;lt;extend&amp;gt;&amp;gt;" style="text;html=1;strokeColor=none;fillColor=none;align=center;verticalAlign=middle;whiteSpace=wrap;rounded=0;fontFamily=Verdana;" vertex="1" parent="1">
          <mxGeometry x="450" y="120" width="40" height="20" as="geometry" />
        </mxCell>
        <mxCell id="UvIz6pSkPgHuYmIcLqJq-52" value="Database" style="shape=umlActor;verticalLabelPosition=bottom;verticalAlign=top;html=1;outlineConnect=0;fontFamily=Verdana;" vertex="1" parent="1">
          <mxGeometry x="710" y="60" width="30" height="60" as="geometry" />
        </mxCell>
        <mxCell id="UvIz6pSkPgHuYmIcLqJq-107" style="edgeStyle=orthogonalEdgeStyle;rounded=0;orthogonalLoop=1;jettySize=auto;html=1;fontFamily=Verdana;" edge="1" parent="1" source="UvIz6pSkPgHuYmIcLqJq-55">
          <mxGeometry relative="1" as="geometry">
            <mxPoint x="690" y="140" as="targetPoint" />
          </mxGeometry>
        </mxCell>
        <mxCell id="UvIz6pSkPgHuYmIcLqJq-55" value="&lt;div&gt;Add New&lt;/div&gt;" style="ellipse;whiteSpace=wrap;html=1;fontFamily=Verdana;" vertex="1" parent="1">
          <mxGeometry x="510" y="170" width="80" height="40" as="geometry" />
        </mxCell>
        <mxCell id="UvIz6pSkPgHuYmIcLqJq-59" value="Print Preview" style="ellipse;whiteSpace=wrap;html=1;fontFamily=Verdana;" vertex="1" parent="1">
          <mxGeometry x="510" y="220" width="80" height="50" as="geometry" />
        </mxCell>
        <mxCell id="UvIz6pSkPgHuYmIcLqJq-98" style="edgeStyle=orthogonalEdgeStyle;rounded=0;orthogonalLoop=1;jettySize=auto;html=1;fontFamily=Verdana;" edge="1" parent="1" source="UvIz6pSkPgHuYmIcLqJq-60">
          <mxGeometry relative="1" as="geometry">
            <mxPoint x="730" y="140" as="targetPoint" />
          </mxGeometry>
        </mxCell>
        <mxCell id="UvIz6pSkPgHuYmIcLqJq-60" value="Save CSV" style="ellipse;whiteSpace=wrap;html=1;fontFamily=Verdana;" vertex="1" parent="1">
          <mxGeometry x="510" y="280" width="75" height="50" as="geometry" />
        </mxCell>
        <mxCell id="UvIz6pSkPgHuYmIcLqJq-99" style="edgeStyle=orthogonalEdgeStyle;rounded=0;orthogonalLoop=1;jettySize=auto;html=1;fontFamily=Verdana;" edge="1" parent="1" source="UvIz6pSkPgHuYmIcLqJq-61">
          <mxGeometry relative="1" as="geometry">
            <mxPoint x="710" y="140" as="targetPoint" />
          </mxGeometry>
        </mxCell>
        <mxCell id="UvIz6pSkPgHuYmIcLqJq-61" value="Filter" style="ellipse;whiteSpace=wrap;html=1;fontFamily=Verdana;" vertex="1" parent="1">
          <mxGeometry x="510" y="350" width="80" height="50" as="geometry" />
        </mxCell>
        <mxCell id="UvIz6pSkPgHuYmIcLqJq-100" style="edgeStyle=orthogonalEdgeStyle;rounded=0;orthogonalLoop=1;jettySize=auto;html=1;fontFamily=Verdana;" edge="1" parent="1" source="UvIz6pSkPgHuYmIcLqJq-62">
          <mxGeometry relative="1" as="geometry">
            <mxPoint x="750" y="140" as="targetPoint" />
          </mxGeometry>
        </mxCell>
        <mxCell id="UvIz6pSkPgHuYmIcLqJq-62" value="Show all" style="ellipse;whiteSpace=wrap;html=1;fontFamily=Verdana;" vertex="1" parent="1">
          <mxGeometry x="510" y="420" width="80" height="40" as="geometry" />
        </mxCell>
        <mxCell id="UvIz6pSkPgHuYmIcLqJq-89" value="&amp;lt;&amp;lt;extend&amp;gt;&amp;gt;" style="text;html=1;strokeColor=none;fillColor=none;align=center;verticalAlign=middle;whiteSpace=wrap;rounded=0;fontFamily=Verdana;" vertex="1" parent="1">
          <mxGeometry x="365" y="235" width="40" height="20" as="geometry" />
        </mxCell>
        <mxCell id="UvIz6pSkPgHuYmIcLqJq-90" value="&amp;lt;&amp;lt;extend&amp;gt;&amp;gt;" style="text;html=1;strokeColor=none;fillColor=none;align=center;verticalAlign=middle;whiteSpace=wrap;rounded=0;fontFamily=Verdana;" vertex="1" parent="1">
          <mxGeometry x="350" y="300" width="40" height="20" as="geometry" />
        </mxCell>
        <mxCell id="UvIz6pSkPgHuYmIcLqJq-91" value="&amp;lt;&amp;lt;extend&amp;gt;&amp;gt;" style="text;html=1;strokeColor=none;fillColor=none;align=center;verticalAlign=middle;whiteSpace=wrap;rounded=0;fontFamily=Verdana;" vertex="1" parent="1">
          <mxGeometry x="350" y="360" width="40" height="20" as="geometry" />
        </mxCell>
        <mxCell id="UvIz6pSkPgHuYmIcLqJq-92" value="&amp;lt;&amp;lt;extend&amp;gt;&amp;gt;" style="text;html=1;strokeColor=none;fillColor=none;align=center;verticalAlign=middle;whiteSpace=wrap;rounded=0;fontFamily=Verdana;" vertex="1" parent="1">
          <mxGeometry x="340" y="420" width="40" height="20" as="geometry" />
        </mxCell>
        <mxCell id="UvIz6pSkPgHuYmIcLqJq-97" value="&amp;lt;&amp;lt;extend&amp;gt;&amp;gt;" style="text;html=1;strokeColor=none;fillColor=none;align=center;verticalAlign=middle;whiteSpace=wrap;rounded=0;fontFamily=Verdana;" vertex="1" parent="1">
          <mxGeometry x="380" y="470" width="40" height="20" as="geometry" />
        </mxCell>
        <mxCell id="UvIz6pSkPgHuYmIcLqJq-102" style="edgeStyle=orthogonalEdgeStyle;rounded=0;orthogonalLoop=1;jettySize=auto;html=1;entryX=-0.014;entryY=0.35;entryDx=0;entryDy=0;entryPerimeter=0;fontFamily=Verdana;" edge="1" parent="1" source="UvIz6pSkPgHuYmIcLqJq-101" target="UvIz6pSkPgHuYmIcLqJq-28">
          <mxGeometry relative="1" as="geometry" />
        </mxCell>
        <mxCell id="UvIz6pSkPgHuYmIcLqJq-103" style="edgeStyle=orthogonalEdgeStyle;rounded=0;orthogonalLoop=1;jettySize=auto;html=1;entryX=0.323;entryY=0.098;entryDx=0;entryDy=0;entryPerimeter=0;fontFamily=Verdana;" edge="1" parent="1" source="UvIz6pSkPgHuYmIcLqJq-101" target="UvIz6pSkPgHuYmIcLqJq-1">
          <mxGeometry relative="1" as="geometry" />
        </mxCell>
        <mxCell id="UvIz6pSkPgHuYmIcLqJq-105" style="edgeStyle=orthogonalEdgeStyle;rounded=0;orthogonalLoop=1;jettySize=auto;html=1;entryX=0;entryY=1;entryDx=0;entryDy=0;fontFamily=Verdana;" edge="1" parent="1" source="UvIz6pSkPgHuYmIcLqJq-101" target="UvIz6pSkPgHuYmIcLqJq-30">
          <mxGeometry relative="1" as="geometry" />
        </mxCell>
        <mxCell id="UvIz6pSkPgHuYmIcLqJq-106" style="edgeStyle=orthogonalEdgeStyle;rounded=0;orthogonalLoop=1;jettySize=auto;html=1;entryX=0;entryY=1;entryDx=0;entryDy=0;fontFamily=Verdana;" edge="1" parent="1" source="UvIz6pSkPgHuYmIcLqJq-101" target="UvIz6pSkPgHuYmIcLqJq-31">
          <mxGeometry relative="1" as="geometry" />
        </mxCell>
        <mxCell id="UvIz6pSkPgHuYmIcLqJq-101" value="Management" style="shape=umlActor;verticalLabelPosition=bottom;verticalAlign=top;html=1;outlineConnect=0;fontFamily=Verdana;" vertex="1" parent="1">
          <mxGeometry x="60" y="420" width="30" height="60" as="geometry" />
        </mxCell>
        <mxCell id="UvIz6pSkPgHuYmIcLqJq-109" style="edgeStyle=orthogonalEdgeStyle;rounded=0;orthogonalLoop=1;jettySize=auto;html=1;entryX=0.119;entryY=0.293;entryDx=0;entryDy=0;entryPerimeter=0;fontFamily=Verdana;" edge="1" parent="1" source="UvIz6pSkPgHuYmIcLqJq-108" target="UvIz6pSkPgHuYmIcLqJq-1">
          <mxGeometry relative="1" as="geometry" />
        </mxCell>
        <mxCell id="UvIz6pSkPgHuYmIcLqJq-108" value="Routes identify system" style="shape=umlActor;verticalLabelPosition=bottom;verticalAlign=top;html=1;outlineConnect=0;fontFamily=Verdana;" vertex="1" parent="1">
          <mxGeometry x="710" y="460" width="30" height="60" as="geometry" />
        </mxCell>
      </root>
    </mxGraphModel>
  </diagram>
</mxfile>
